<svg width="21" height="20" viewBox="0 0 21 20" fill="none" xmlns="http://www.w3.org/2000/svg">
<path d="M6.39377 3.74636V4.97553H18.9813V7.40872L17.5114 11.736H5.9769L4.32065 0.671936H0.431274V1.90111H3.1669L4.82315 12.9651H18.4831L20.3063 7.59778V3.74636H6.39377Z" fill="black"/>
<path d="M7.09702 14.2061C6.39444 14.2068 5.72087 14.466 5.22407 14.9269C4.72727 15.3878 4.44782 16.0126 4.44702 16.6644C4.44702 17.3164 4.72622 17.9417 5.22319 18.4027C5.72016 18.8637 6.3942 19.1227 7.09702 19.1227C7.79984 19.1227 8.47388 18.8637 8.97085 18.4027C9.46783 17.9417 9.74702 17.3164 9.74702 16.6644C9.74623 16.0126 9.46678 15.3878 8.96998 14.9269C8.47318 14.466 7.7996 14.2068 7.09702 14.2061ZM7.09702 17.8936C6.83496 17.8936 6.57879 17.8215 6.36089 17.6864C6.143 17.5514 5.97317 17.3594 5.87288 17.1348C5.7726 16.9102 5.74636 16.663 5.79748 16.4246C5.84861 16.1862 5.9748 15.9671 6.1601 15.7952C6.34541 15.6233 6.5815 15.5063 6.83853 15.4588C7.09555 15.4114 7.36197 15.4358 7.60408 15.5288C7.84619 15.6218 8.05313 15.7794 8.19872 15.9815C8.34431 16.1836 8.42202 16.4213 8.42202 16.6644C8.4216 16.9903 8.28187 17.3027 8.03348 17.5331C7.78508 17.7636 7.44831 17.8932 7.09702 17.8936Z" fill="black"/>
<path d="M16.372 14.2061C15.6694 14.2068 14.9958 14.466 14.499 14.9269C14.0022 15.3878 13.7228 16.0126 13.722 16.6644C13.722 17.3164 14.0012 17.9417 14.4982 18.4027C14.9951 18.8637 15.6692 19.1227 16.372 19.1227C17.0748 19.1227 17.7488 18.8637 18.2458 18.4027C18.7428 17.9417 19.022 17.3164 19.022 16.6644C19.0212 16.0126 18.7417 15.3878 18.2449 14.9269C17.7481 14.466 17.0746 14.2068 16.372 14.2061ZM16.372 17.8936C16.1099 17.8936 15.8537 17.8215 15.6359 17.6864C15.418 17.5514 15.2481 17.3594 15.1478 17.1348C15.0476 16.9102 15.0213 16.663 15.0724 16.4246C15.1236 16.1862 15.2498 15.9671 15.4351 15.7952C15.6204 15.6233 15.8565 15.5063 16.1135 15.4588C16.3705 15.4114 16.6369 15.4358 16.879 15.5288C17.1212 15.6218 17.3281 15.7794 17.4737 15.9815C17.6193 16.1836 17.697 16.4213 17.697 16.6644C17.6966 16.9903 17.5568 17.3027 17.3084 17.5331C17.06 17.7636 16.7233 17.8932 16.372 17.8936Z" fill="black"/>
</svg>
