<svg width="19" height="19" viewBox="0 0 19 19" fill="none" xmlns="http://www.w3.org/2000/svg">
<path d="M16.2494 12.8377L12.7097 11.0802L14.0442 9.2113C14.3553 8.77486 14.5185 8.28591 14.519 7.78897V4.83045C14.519 3.72754 13.9454 2.66981 12.9245 1.88994C11.9035 1.11006 10.5188 0.671936 9.07498 0.671936C7.63113 0.671936 6.24643 1.11006 5.22547 1.88994C4.20452 2.66981 3.63096 3.72754 3.63096 4.83045V7.78897C3.63144 8.28592 3.79466 8.77489 4.10575 9.21134L5.44027 11.0802L1.90054 12.8377C1.35653 13.1067 0.909522 13.4756 0.600425 13.9107C0.291328 14.3458 0.13001 14.8332 0.131232 15.3282V18.4941H18.0187V15.3282C18.0199 14.8332 17.8586 14.3458 17.5495 13.9107C17.2404 13.4756 16.7934 13.1067 16.2494 12.8377ZM16.4633 17.306H1.68667V15.3282C1.68594 15.0312 1.78274 14.7387 1.9682 14.4777C2.15367 14.2166 2.42188 13.9953 2.7483 13.8339L7.49529 11.4769L5.47128 8.6424C5.28463 8.38052 5.18669 8.08715 5.18639 7.78897V4.83045C5.18639 4.04266 5.59608 3.28714 6.32533 2.73008C7.05458 2.17303 8.04366 1.86008 9.07498 1.86008C10.1063 1.86008 11.0954 2.17303 11.8246 2.73008C12.5539 3.28714 12.9636 4.04266 12.9636 4.83045V7.78897C12.9633 8.08715 12.8653 8.38052 12.6787 8.6424L10.6547 11.4769L15.4018 13.8339C15.7282 13.9953 15.9964 14.2166 16.1818 14.4777C16.3673 14.7388 16.464 15.0312 16.4633 15.3282V17.306Z" fill="black"/>
</svg>
